# xmcd
# 
# Track frame offsets:
#   300
#   16514
#   31966
#   49755
# 
# Disc length: 897 seconds
# 
# Revision: 3
# Processed by: cddbd v1.5.2PL0 Copyright (c) Steve Scherf et al.
# Submitted via: Synapstar 1.0 
# 
DISCID=23037d04
DTITLE=Various Artist - Karaoke Mix 6-20-10
DYEAR=2001
DGENRE=Country
TTITLE0=Jerrod Niemann - Lover, Lover
TTITLE1=Jaron and The Long Road To Love - Pray For You
TTITLE2=Breaking Benjamin - So Cold
TTITLE3=Breaking Benjamin - I Will Not Bow
EXTD=YEAR: 2001 ID3G:   7 MediaType: Karaoke CD+G Producer: Unknown
EXTT0=
EXTT1=
EXTT2=
EXTT3=
PLAYORDER=
